<svg
  width="13"
  height="18"
  viewBox="0 0 13 18"
  xmlns="http://www.w3.org/2000/svg"
>
<path
    d="M12.5357 1.07113H9.05357L8.7808 0.44519C8.72302 0.311372 8.63402 0.198807 8.5238 0.120158C8.41358 0.0415099 8.28652 -0.000101354 8.15692 5.86864e-06H4.84018C4.71087 -0.000567533 4.58403 0.0408885 4.47421 0.119624C4.36438 0.19836 4.276 0.311191 4.2192 0.44519L3.94643 1.07113H0.464286C0.341149 1.07113 0.223057 1.12755 0.135986 1.22799C0.0489157 1.32843 0 1.46465 0 1.60669L0 2.67781C0 2.81985 0.0489157 2.95607 0.135986 3.0565C0.223057 3.15694 0.341149 3.21337 0.464286 3.21337H12.5357C12.6588 3.21337 12.7769 3.15694 12.864 3.0565C12.9511 2.95607 13 2.81985 13 2.67781V1.60669C13 1.46465 12.9511 1.32843 12.864 1.22799C12.7769 1.12755 12.6588 1.07113 12.5357 1.07113ZM1.54375 15.6317C1.56589 16.0396 1.72197 16.4224 1.98019 16.7022C2.23842 16.9821 2.5794 17.1379 2.93371 17.1379H10.0663C10.4206 17.1379 10.7616 16.9821 11.0198 16.7022C11.278 16.4224 11.4341 16.0396 11.4562 15.6317L12.0714 4.28449H0.928571L1.54375 15.6317Z"
  />
</svg>
